<svg id="Layer_1" data-name="Layer 1" xmlns="http://www.w3.org/2000/svg" xmlns:xlink="http://www.w3.org/1999/xlink" viewBox="0 0 310.3 308.38"><defs><style>.cls-1{fill:#fff;}.cls-2{fill:url(#linear-gradient);}</style><linearGradient id="linear-gradient" x1="44.81" y1="385.19" x2="355.11" y2="385.19" gradientTransform="translate(-40 -226)" gradientUnits="userSpaceOnUse"><stop offset="0" stop-color="#f28e1d"/><stop offset="0.25" stop-color="#f6a017"/><stop offset="0.58" stop-color="#d23e71"/><stop offset="1" stop-color="#4a4d9c"/></linearGradient></defs><title>icon</title><path class="cls-1" d="M294,233.29l-1.31-2.45c-2-4.61-2.66-10.67-1.09-13.85,1.28-3.33,8.3-13.18,12.76-14.94l2.74-1.17c4.46-1.76,5.59-6.24,2.4-10l-2-2.44c-3.2-3.74-5.39-9.5-5.12-13s3.81-15,7.7-17.79l2.44-2c3.73-3.2,3.42-7.67-.78-10.1l-3-1.86c-4.2-2.43-8-7.17-8.86-10.49-.59-3.17-.52-15,2.21-19.06l1.86-3c2.72-4.06,1.25-8.38-3.52-9.65l-3.47-1c-4.77-1.27-10-4.56-11.44-7.44s-5-14-3.42-18.6l1.13-3.76c1.56-4.63-1.34-8.22-6.4-8.19l-3.75.31c-4.76.17-10.83-1.38-12.87-3.83-2.18-2.15-8.87-11.93-8.61-16.84l.12-3.9c-.17-4.76-3.79-7.63-8.26-5.87l-3.89,1.32c-4.46,1.76-10.53,1.65-13.42.22l-2.6-1.28-2.6-1.28c-2.89-1.43-6.67-6.17-8-10.78l-1.32-3.89c-1.32-4.61-6-6.17-9.69-3l-3,2.47c-3.88,2.76-9.64,5-12.82,4.11-3.32-.56-13.74-5-16.79-9L166.94,8c-2.76-3.88-7.38-4-10.39-.09l-2.29,3.19c-2.72,4.06-8,7.55-11.07,7.85-3.32.16-14.87-.5-18.64-3.8L121.65,13c-3.91-3-8.24-1.54-9.8,3.08l-1.28,3.33C109,24,105.14,28.94,102.11,30c-3.17,1.32-14.56,4-19,2.12l-3.33-1.28c-4.92-1.71-8.66.77-8.92,5.68l-.13,3.18c-.26,4.91-2.4,10.69-4.84,12.73-2.59,2.32-13.09,8.3-17.85,7.75L44.83,60c-4.91-.26-7.78,3.36-6.45,8l.74,2.88c1.32,4.61.78,10.82-1.08,13.86-1.72,2.75-10.18,11.89-14.79,13.21l-2.88.74c-4.9,1.18-6.61,5.38-4,9.55l1.46,2.16c2.62,4.17,4,10.23,3,13.7S14.66,138.7,10.2,141.17l-2,1.17C4,145,3.61,149.44,7.52,152.45l1.88,1.29c3.77,3.3,6.83,8.77,6.85,12.37s-1.5,16.17-5.09,19.8l-1.44,1.45c-3.16,3.48-2.26,8.24,2.22,10.09l1.74.86c4.48,1.85,9.13,6.3,10.3,9.76s3.26,16,1.41,20.49l-.86,1.74c-2.14,4.34.19,8.37,5,8.92l1.73.13c4.77.55,10.55,3.41,13,6.42,2.18,2.87,8.16,14.82,7.32,19.44l-.13,1.73c-.55,4.77,2.5,8.07,7.4,6.89l1.59-.3c4.76-.89,11.11.08,14.3,2.38s12.19,11.77,12.79,16.38l.3,1.59c.89,4.76,4.94,6.76,9.26,4.57l1.44-.73c4.32-2.19,11-3.24,14.28-2,3.62,1.42,15.05,7.42,17.1,12l.73,1.44c2.19,4.32,6.81,5.16,10,1.68l1.29-1.16c3.45-3.34,9.2-6.26,13.1-6.13s16.61,2.8,20,6.24l1.16,1.29c3.34,3.45,8,2.84,10.09-1.5l.86-1.74c2.14-4.34,7.17-8.7,10.48-9.58,3.75-1,16.15-2.11,20.64.46l1.74.86c4.2,2.43,8.37.53,9.36-4.38l.28-2c.84-4.62,4-10.27,7.15-12.31s14.83-6.72,19.74-5.74l2.31.42c4.91,1,8.22-2.07,7.61-6.68l-.3-2.31c-.46-4.9.81-11.12,3.1-13.58,2.44-2.76,12.07-10.6,17-11.06l2.6-.16C293.78,241.81,296.07,237.9,294,233.29Z" transform="translate(-4.81 -5)"/><path class="cls-2" d="M299.53,128.85c0,.63,0,1.22,0,1.76C299.55,130.07,299.54,129.48,299.53,128.85Zm5.58-20.54v0Zm0,.05a6.89,6.89,0,0,1-.19.71A6.93,6.93,0,0,0,305.1,108.36Zm.11-.73a6.31,6.31,0,0,1-.1.68A6.32,6.32,0,0,0,305.21,107.64Zm0,0h0Zm-222,28.59,0,0,39,44.33L176.48,134l17.35-14.6h0l.76.84,38.26,43.51,71.25-60a5.31,5.31,0,0,1,1.1,3.82c.27-2.8-1.44-5.24-4.83-6.15l-3.47-1c-4.77-1.27-10-4.56-11.44-7.44s-5-14-3.42-18.6l1.13-3.76c1.56-4.63-1.34-8.22-6.4-8.19l-3.75.31c-4.76.17-10.83-1.38-12.87-3.83-2.18-2.15-8.87-11.93-8.61-16.84l.12-3.9c-.17-4.76-3.79-7.63-8.26-5.87l-3.89,1.32c-4.46,1.76-10.53,1.65-13.42.22l-2.6-1.28-2.6-1.28c-2.89-1.43-6.67-6.17-8-10.78l-1.32-3.89c-1.32-4.61-6-6.17-9.69-3l-3,2.47c-3.88,2.76-9.64,5-12.82,4.11-3.32-.56-13.74-5-16.79-9L166.94,8c-2.76-3.88-7.38-4-10.39-.09l-2.29,3.19c-2.72,4.06-8,7.55-11.07,7.85-3.32.16-14.87-.5-18.64-3.8L121.65,13c-3.91-3-8.24-1.54-9.8,3.08l-1.28,3.33C109,24,105.14,28.94,102.11,30c-3.17,1.32-14.56,4-19,2.12l-3.33-1.28c-4.92-1.71-8.66.77-8.92,5.68l-.13,3.18c-.26,4.91-2.4,10.69-4.84,12.73-2.59,2.32-13.09,8.3-17.85,7.75L44.83,60c-4.91-.26-7.78,3.36-6.45,8l.74,2.88c1.32,4.61.78,10.82-1.08,13.86-1.72,2.75-10.18,11.89-14.79,13.21l-2.88.74c-4.9,1.18-6.61,5.38-4,9.55l1.46,2.16c2.62,4.17,4,10.23,3,13.7S14.66,138.7,10.2,141.17l-2,1.17C4,145,3.61,149.44,7.52,152.45l1.88,1.29c3.77,3.3,6.83,8.77,6.85,12.38s-1.5,16.17-5.09,19.8l-1.44,1.45c-3.16,3.48-2.26,8.24,2.22,10.09l.32.16L65.85,150.8Zm216.37-9.33c0-1.38.12-2.85.27-4.29C299.67,124,299.58,125.51,299.55,126.89Zm12.18,18.7-3-1.86a22.35,22.35,0,0,1-8.05-8.45l-52.78,44.42L230.81,194l-.61.51-38.85-44.49-54.12,46.38-17.66,14.87-.07.06-5.91-6.51-32.87-38L25.47,215.11h0c.71,4.87,1.07,10.69-.07,13.45l-.86,1.74c-2.14,4.34.19,8.37,5,8.92l1.73.13c4.77.55,10.55,3.41,13,6.42,2.18,2.87,8.16,14.82,7.32,19.44l-.13,1.73c-.55,4.77,2.5,8.07,7.4,6.89l1.59-.3c4.76-.89,11.11.08,14.3,2.38s12.19,11.77,12.79,16.38l.3,1.59c.89,4.76,4.94,6.76,9.26,4.57l1.44-.73c4.32-2.19,11-3.24,14.28-2,3.62,1.42,15.05,7.42,17.1,12l.73,1.44c2.19,4.32,6.81,5.16,10,1.68l1.29-1.16c3.45-3.34,9.2-6.26,13.1-6.13s16.61,2.8,20,6.24l1.16,1.29c3.34,3.45,8,2.84,10.1-1.5l.86-1.74c2.14-4.34,7.17-8.7,10.48-9.58,3.75-1,16.15-2.11,20.64.46l1.74.86c4.2,2.43,8.37.53,9.36-4.38l.28-2c.84-4.62,4-10.27,7.15-12.31s14.83-6.72,19.74-5.74l2.31.42c4.91,1,8.22-2.07,7.61-6.68l-.3-2.31c-.46-4.9.81-11.12,3.1-13.58,2.44-2.76,12.07-10.6,17-11.06l2.6-.16c5.05,0,7.34-3.94,5.29-8.54l-1.31-2.45c-2-4.61-2.66-10.67-1.09-13.85,1.28-3.33,8.3-13.18,12.76-14.94l2.74-1.17c4.46-1.76,5.59-6.24,2.4-10l-2-2.44c-3.2-3.74-5.39-9.5-5.12-13s3.82-15,7.7-17.79l2.44-2C316.24,152.49,315.93,148,311.73,145.59Z" transform="translate(-4.81 -5)"/></svg>