<?xml version="1.0" encoding="utf-8"?>
<!-- Generator: Adobe Illustrator 22.0.1, SVG Export Plug-In . SVG Version: 6.00 Build 0)  -->
<svg version="1.0" id="Layer_1" xmlns="http://www.w3.org/2000/svg" xmlns:xlink="http://www.w3.org/1999/xlink" x="0px" y="0px"
	 viewBox="0 0 400 400" style="enable-background:new 0 0 400 400;" xml:space="preserve">
<style type="text/css">
	.st0{fill:#36A9E0;}
	.st1{fill:#FFFFFF;}
</style>
<circle class="st0" cx="200.1" cy="200.4" r="197.6"/>
<title>Avatar/Profile icon</title>
<desc>Created with Sketch.</desc>
<g id="Group-10">
	<path id="Fill-4" class="st1" d="M203.8,93.6c-21,0-38.1,17.1-38.1,38.1c0,21,17.1,38.1,38.1,38.1c21,0,38.1-17.1,38.1-38.1
		C242,110.7,224.9,93.6,203.8,93.6 M203.8,213.1c-44.9,0-81.4-36.5-81.4-81.4s36.5-81.4,81.4-81.4c44.9,0,81.4,36.5,81.4,81.4
		S248.7,213.1,203.8,213.1"/>
	<path id="Fill-6" class="st1" d="M137.2,253.2c-7.1,0-12.9,5.8-12.9,12.9c0,7.1,5.8,12.9,12.9,12.9c7.1,0,12.9-5.8,12.9-12.9
		C150.1,259,144.3,253.2,137.2,253.2 M137.2,309.3c-23.8,0-43.2-19.4-43.2-43.2c0-23.8,19.4-43.2,43.2-43.2
		c23.8,0,43.2,19.4,43.2,43.2C180.3,289.9,161,309.3,137.2,309.3"/>
	<path id="Fill-8" class="st1" d="M216.4,332.8c0,9.4-7.6,16.9-16.9,16.9c-9.4,0-16.9-7.6-16.9-16.9c0-9.4,7.6-16.9,16.9-16.9
		C208.8,315.8,216.4,323.4,216.4,332.8"/>
</g>
</svg>
